<?xml version="1.0" encoding="UTF-8" standalone="no"?>
<!-- Generator: Adobe Illustrator 24.0.1, SVG Export Plug-In . SVG Version: 6.00 Build 0)  -->

<svg
   version="1.1"
   id="Layer_1"
   x="0px"
   y="0px"
   width="1000px"
   height="1000px"
   viewBox="0 0 1000 1000"
   style="enable-background:new 0 0 1000 1000;"
   xml:space="preserve"
   sodipodi:docname="initEdit.svg"
   inkscape:version="1.2.1 (9c6d41e410, 2022-07-14)"
   xmlns:inkscape="http://www.inkscape.org/namespaces/inkscape"
   xmlns:sodipodi="http://sodipodi.sourceforge.net/DTD/sodipodi-0.dtd"
   xmlns="http://www.w3.org/2000/svg"
   xmlns:svg="http://www.w3.org/2000/svg"><defs
   id="defs993"><pattern
     id="EMFhbasepattern"
     patternUnits="userSpaceOnUse"
     width="6"
     height="6"
     x="0"
     y="0" /><pattern
     id="EMFhbasepattern-7"
     patternUnits="userSpaceOnUse"
     width="6"
     height="6"
     x="0"
     y="0" /></defs><sodipodi:namedview
   id="namedview991"
   pagecolor="#ffffff"
   bordercolor="#000000"
   borderopacity="0.25"
   inkscape:showpageshadow="2"
   inkscape:pageopacity="0.0"
   inkscape:pagecheckerboard="0"
   inkscape:deskcolor="#d1d1d1"
   showgrid="false"
   inkscape:zoom="2.3023396"
   inkscape:cx="492.9768"
   inkscape:cy="213.4785"
   inkscape:window-width="1920"
   inkscape:window-height="991"
   inkscape:window-x="-9"
   inkscape:window-y="-9"
   inkscape:window-maximized="1"
   inkscape:current-layer="illustration" />
<g
   id="illustration"
   style="display:inline;fill:#000000"
   inkscape:label="illustration">
	
	
	
	
	
	
	
	
	
	
	
	
	
	
	
	
	
	
	
	
	
	
	
	
	
	
	
	
	
	
	
<rect
   style="fill:#ff6600"
   id="rect70139"
   width="288.69778"
   height="54.054054"
   x="609.33661"
   y="269.04178" /><rect
   style="fill:#ff6600"
   id="rect70141"
   width="275.1843"
   height="34.398037"
   x="113.02212"
   y="276.41278" /><rect
   style="fill:#ff6600"
   id="rect70143"
   width="184.27519"
   height="228.50124"
   x="410.31943"
   y="285.0123" /><rect
   style="fill:#ff6600"
   id="rect70145"
   width="71.253075"
   height="355.03687"
   x="416.46194"
   y="535.62653" /><rect
   style="fill:#ff6600"
   id="rect70147"
   width="66.339066"
   height="351.35138"
   x="534.39807"
   y="538.08356" /><path
   sodipodi:type="spiral"
   style="fill:#ffff00;fill-rule:evenodd;stroke:#000000"
   id="path70208"
   sodipodi:cx="498.77151"
   sodipodi:cy="378.37839"
   sodipodi:expansion="1"
   sodipodi:revolution="3"
   sodipodi:radius="59.477734"
   sodipodi:argument="-17.947048"
   sodipodi:t0="0"
   d="m 498.77151,378.37839 c 1.84786,2.34061 -2.24343,3.64564 -3.89025,3.07125 -4.46278,-1.55657 -4.5089,-7.51282 -2.25224,-10.85177 4.03661,-5.97258 12.66363,-5.71295 17.81326,-1.43323 7.5573,6.28066 6.96206,17.88771 0.61423,24.77477 -8.46064,9.17938 -23.13822,8.2309 -31.73628,-0.20477 -10.81977,-10.61543 -9.51006,-28.40146 1.02379,-38.69779 12.75789,-12.47024 33.67186,-10.79524 45.65929,1.84279 14.12677,14.89347 12.08418,38.94675 -2.6618,52.6208 -17.02481,15.78723 -44.22463,13.37564 -59.5823,-3.4808 -17.45037,-19.15336 -14.66886,-49.50462 4.29981,-66.54382 21.27997,-19.1154 54.78612,-15.96335 73.50532,5.11882 20.78185,23.4052 17.25879,60.06879 -5.93783,80.46683" /><ellipse
   style="fill:#ffccaa"
   id="path70380"
   cx="496.31451"
   cy="179.36119"
   rx="51.597054"
   ry="61.425064" /><path
   style="fill:#ffcc00"
   d="m 481.5725,130.22114 c -2.457,0 -5.01763,-0.70602 -7.37101,0 -7.24428,2.17328 -2.66826,4.40538 -8.59951,7.371 -2.66647,1.33324 -5.89269,1.20771 -8.59951,2.45701 -24.0272,11.08948 7.02296,-0.52781 -13.51351,8.5995 -1.54289,0.68573 -3.40384,0.47342 -4.91401,1.22851 -5.2465,2.62325 -5.62483,4.46123 -9.82801,6.1425 -1.20233,0.48094 -3.37143,2.48479 -3.6855,1.2285 -1.1559,-4.62361 14.69287,-25.733 18.42752,-30.71253 1.73788,-2.31717 4.92141,-4.914 0,-4.914 -6.14251,0 -12.28501,0 -18.42752,0 -0.16704,0 -6.30954,0 -6.14251,0 2.04751,0 4.09501,0 6.14251,0 6.96151,0 13.94204,0.51425 20.88452,0 9.04624,-0.6701 10.83315,-2.73621 18.42752,-3.68551 1.21902,-0.15237 2.49368,0.29796 3.68551,0 0.56183,-0.14046 1.69179,-0.88103 1.2285,-1.2285 -3.07656,-2.30741 -24.57003,-6.30323 -24.57003,-11.05651 0,-5.33887 17.30165,3.06973 18.42752,-3.6855 0.87518,-5.251078 0,-10.647015 0,-15.970521 0,-1.228501 0,-2.457002 0,-3.685504 0,-19.883322 5.40266,4.544082 11.05651,7.371008 3.93322,1.966608 3.43515,-7.522381 6.14251,-14.742015 0.28757,-0.766855 2.36656,-0.813992 2.457,0 0.407,3.662962 0,7.371007 0,11.056511 0,2.457003 -1.0988,5.173398 0,7.371008 2.12737,4.254729 10.20252,-1.904417 11.05651,-2.457003 10.87054,-7.033875 15.61063,-17.898055 28.25553,-22.113023 9.26703,-3.08901 3.37521,21.397455 4.91401,20.884522 3.82614,-1.275382 7.40727,-3.196718 11.05651,-4.914005 0.55348,-0.260463 14.45498,-9.253942 11.05651,-2.457003 -1.3206,2.641199 -6.85854,5.148687 -4.91401,7.371008 3.01487,3.445562 9.04419,1.463818 13.51352,2.457003 6.59283,1.465073 13.0819,3.367152 19.65602,4.914005 0.39861,0.09379 1.51806,-0.289561 1.2285,0 -2.94058,2.940582 -13.60513,0.27484 -14.74202,3.685499 -2.98812,8.96438 13.49092,15.94792 18.42752,20.88453 0.28956,0.28956 -0.83122,0.0993 -1.2285,0 -4.52962,-1.13241 -9.16196,-1.99324 -13.51351,-3.68551 -3.07701,-1.19661 -5.8525,-3.08266 -8.59951,-4.914 -0.34073,-0.22715 1.07642,-0.38021 1.2285,0 2.40467,6.01167 4.21125,12.24748 6.14251,18.42752 0.91139,2.91647 -17.7924,-1.27024 -20.88452,4.914 -2.01448,4.02895 0,9.00901 0,13.51352 0,1.29495 -0.23996,4.52196 -1.22851,3.6855 -5.30511,-4.48895 -10.16576,-9.51202 -14.74201,-14.74202 -2.9453,-3.36605 -4.07967,-8.41393 -4.91401,-7.371 -3.32066,4.15083 -2.51759,8.6904 -4.914,12.28501 -0.64248,0.96371 -1.5145,3.13022 -2.457,2.457 -3.80498,-2.71784 -9.94647,-18.8765 -12.28502,-19.65602 -7.84004,-2.61335 -4.54873,11.60989 -8.59951,12.28501 -3.41045,0.56841 -34.15518,-0.98565 -34.39803,-1.2285 -0.28956,-0.28956 0,-0.819 0,-1.2285"
   id="path70675" /><path
   style="fill:#f4e3d7"
   d="m 904.17694,273.95578 c 0.40609,-0.40609 6.86631,-5.57136 7.37101,-8.5995 0.9897,-5.93821 -1.77432,-5.52868 1.2285,-12.28502 3.744,-8.42401 2.574,-1.014 4.914,-4.914 0.94222,-1.57037 1.16205,-3.61905 2.457,-4.91401 0.57913,-0.57912 1.68003,0.25899 2.45701,0 0.5494,-0.18313 0.66667,-1.08804 1.2285,-1.2285 0.38587,-0.0965 9.77552,-0.26246 9.82801,0 0.40155,2.00774 0,4.09501 0,6.14251 0,1.638 0.57514,3.38029 0,4.914 -0.71893,1.91714 -2.54976,3.21038 -3.68551,4.91401 -1.34513,2.01769 -1.64763,4.6141 -3.6855,6.1425 -1.38881,1.04161 -5.19916,3.02731 -6.14251,4.91401 -0.54777,1.09556 17.45406,-0.97347 18.42752,0 1.71311,1.71311 2.51687,9.18383 1.2285,9.82801 -9.384,4.692 -8.89197,3.6855 -18.42751,3.6855 -1.63801,0 -6.55201,0 -4.91401,0 4.61999,0 24.57003,-1.3203 24.57003,7.37101 0,1.2285 0.76743,2.72621 0,3.6855 -3.43068,4.28835 -14.5895,2.45701 -17.19902,2.45701 -1.638,0 -5.64654,-1.46508 -4.91401,0 0.6603,1.3206 2.57435,1.48473 3.68551,2.457 2.17916,1.90677 4.45947,3.78625 6.1425,6.14251 1.6379,2.29306 -0.45503,11.08383 -2.457,12.28501 -1.05343,0.63206 -2.457,0 -3.6855,0 -10.87162,0 -12.85124,-3.02323 -20.88453,-11.05651 -0.79721,-0.79722 -2.44432,-6.7631 -1.2285,-7.37101 0.73254,-0.36627 1.76249,-0.43407 2.45701,0 2.71215,1.6951 5.59691,3.48136 7.371,6.14251 0.63622,0.95431 1.12869,12.72778 -1.2285,13.51351 -14.80605,4.93535 -6.11713,-18.4529 -14.74201,-9.82801"
   id="path70803" /><path
   style="fill:#241c1c"
   d="m 113.02212,286.2408 c -9.23218,-3.13244 -12.46578,-10.21833 -19.656023,-15.97052 -1.430038,-1.14403 -3.523547,-1.26518 -4.914005,-2.457 -1.55458,-1.3325 -2.019383,-3.72392 -3.685504,-4.91401 -2.554177,-1.82441 -10.128356,-1.2285 -12.285013,-1.2285 -4.033764,0 -13.377407,-0.34027 -13.513514,0 -2.808003,7.02001 1.170001,6.08401 4.914005,9.82801 2.669616,2.66962 4.701392,5.92989 7.371008,8.59951 0.397472,0.39747 8.959298,5.78272 8.599509,6.14251 -1.756822,1.75682 -17.800161,-3.14403 -8.599509,7.371 4.652751,5.31743 21.301012,8.59951 28.255529,8.59951 0.409501,0 -0.819001,0 -1.228501,0 -0.136397,0 -12.95823,-1.54791 -13.513514,1.2285 -0.321239,1.6062 0,3.27601 0,4.91401 0,2.0475 -0.915671,4.31116 0,6.14251 1.474027,2.94805 12.110468,1.2285 14.742015,1.2285 1.228497,0 -2.473717,-0.20197 -3.685504,0 -4.811485,0.80191 -4.914005,1.831 -4.914005,6.1425 0,0.819 -0.406338,1.74591 0,2.45701 7.883632,13.79635 24.430466,3.6855 15.970516,3.6855 -0.4095,0 0.82695,0.0803 1.2285,0 1.65563,-0.33113 3.34635,-0.60144 4.91401,-1.2285 3.14924,-1.2597 2.457,-6.08469 2.457,-8.59951"
   id="path70805" /><path
   style="fill:#241c1c"
   d="m 418.91893,605.65113 c -0.93754,-4.25113 -2.46743,-8.61516 -4.914,-12.28501 -1.51266,-2.269 -7.27427,-11.18065 -8.59951,-12.28502 -1.53363,-1.27802 -11.49571,-4.18655 -13.51351,-2.457 -2.08569,1.78773 -2.60341,4.8461 -3.68551,7.37101 -1.37823,3.21588 -2.76491,6.45252 -3.6855,9.82801 -1.69975,6.23241 0.0568,26.13931 1.2285,33.16953 0.2817,1.69023 6.5151,10.2006 8.59951,12.28501 2.65255,2.65256 11.68384,-5.99875 13.51351,-7.371 2.55864,-1.91898 6.74377,-3.00632 7.37101,-6.14251 0.97551,-4.87755 -1.97324,-12.5948 0,-17.19902 0.80655,-1.88195 2.457,-3.276 3.6855,-4.914 z"
   id="path70870" /><path
   style="fill:#241c1c"
   d="m 541.76906,608.10813 c 6.38598,-2.64083 13.16757,-0.23028 19.65602,-1.2285 5.46354,-0.84054 10.57672,-4.79406 15.97052,-6.14251 3.64392,-0.91098 8.57517,0 12.28501,0"
   id="path70872" /><path
   style="fill:#241c1c"
   d="m 542.99756,631.44965 c 16.38002,0 32.76004,0 49.14005,0 2.38252,0 13.51352,0.55319 13.51352,-1.2285 0,-1.83134 -1.77686,-3.21364 -2.457,-4.914 -0.96187,-2.40467 -1.77556,-4.87236 -2.45701,-7.37101 -0.7925,-2.90584 -4.74921,-19.49122 -6.1425,-20.88452 -2.65094,-2.65094 -16.3399,4.50086 -20.88453,4.914 -2.44691,0.22245 -4.95363,-0.43952 -7.371,0 -2.16966,0.39449 -4.05045,1.75965 -6.14251,2.45701 -13.3683,4.4561 2.05863,-0.90313 -8.59951,1.2285 -11.11218,2.22243 3.33689,0.1162 -3.6855,2.457 -2.74849,0.91616 -8.21944,-1.98864 -9.82801,1.2285 -1.29496,2.58991 0.94038,5.71828 1.2285,8.59951 0.24448,2.44481 -0.96786,5.11267 0,7.37101 0.94059,2.19471 2.457,4.095 3.6855,6.1425 z"
   id="path70874" /><path
   style="fill:#241c1c"
   d="m 542.99756,651.10568 c 0.819,4.095 1.86642,8.15088 2.45701,12.28501 1.16214,8.13504 -2.20711,9.83325 3.6855,17.19902 0.36177,0.45221 0.66063,1.11492 1.2285,1.2285 10.63757,2.12751 31.95535,-0.87955 42.99755,-2.45701 1.67681,-0.23954 10.25488,1.17638 11.05651,-1.2285 0.36627,-1.0988 -1.93902,-1.42104 -2.45701,-2.457 -0.75508,-1.51016 -0.63566,-3.33309 -1.2285,-4.914 -0.64302,-1.71474 -2.01283,-3.13735 -2.457,-4.91401 -0.44986,-1.79946 0.14009,-12.99409 -2.457,-13.51351 -4.81858,-0.96372 -9.82801,0 -14.74202,0 -12.5876,0 -25.70254,1.24769 -38.08354,-1.2285 z"
   id="path70876" /><path
   style="fill:#241c1c"
   d="m 410.31943,411.54793 c 2.45141,-0.79636 34.78714,-2.26245 36.85503,-1.2285 2.50295,1.25147 0.85318,4.08044 2.45701,6.1425 1.96356,2.52459 6.26533,3.1414 7.371,6.14251 3.45589,9.38025 1.22851,38.35115 1.22851,50.36855 0,5.73301 0,11.46601 0,17.19902 0,2.35656 0.0174,6.1367 0,6.1425 -2.71941,0.90647 -5.74145,0.21986 -8.59951,0 -12.75947,-0.98149 -25.27487,-1.2285 -38.08354,-1.2285 -2.5526,0 -7.37101,1.31375 -7.37101,-2.457"
   id="path70878" /><path
   style="fill:#241c1c"
   d="m 592.13761,411.54793 c -6.9615,0 -13.92301,0 -20.88452,0 -0.4048,0 -6.0897,-0.21121 -6.1425,0 -1.46804,5.87213 0,25.5657 0,33.16953 0,9.4866 -1.33742,20.12209 0,29.48403 0.61757,4.32302 1.7391,3.47821 3.6855,7.37101 1.05272,2.10544 -0.96832,3.94568 1.2285,6.14251 3.10351,3.10351 34.99363,1.2285 41.76904,1.2285"
   id="path70880" /><path
   style="fill:#241c1c"
   d="m 420.14744,861.17939 c -1.22851,2.04751 -3.05724,3.83887 -3.68551,6.14251 -1.50647,5.52372 0,25.95841 0,33.16953 0,2.19075 -0.002,7.36977 0,7.37101 1.911,0.9555 6.44963,-0.71662 8.59951,0 2.60605,0.86868 4.78938,2.74673 7.37101,3.68551 4.85656,1.76602 17.1822,2.36638 22.11302,1.2285 3.0388,-0.70126 5.68872,-2.56597 8.59951,-3.68551 2.41728,-0.92972 4.99051,-1.43679 7.37101,-2.457 0.53229,-0.22813 0.6791,-1.04537 1.2285,-1.2285 1.25617,-0.41873 6.45667,-0.31417 7.37101,-1.2285 3.31819,-3.31819 1.256,-39.24328 -1.2285,-45.45455 -0.39094,-0.97734 -7.81436,3.42379 -8.59951,3.6855 -4.80102,1.60034 -8.46789,1.22851 -13.51352,1.22851 -8.75452,0 -18.37931,1.23538 -27.02703,0 -8.43803,-1.20544 -10.76687,-4.44458 -19.65602,0 -2.03886,1.01943 -1.2285,26.48767 -1.2285,31.94103 0,0.54114 0.32393,8.54552 0,8.59951 -8.79931,1.46655 -14.92617,1.2285 -23.34152,1.2285 -1.68841,0 -5.66909,-0.28166 -4.91401,1.2285 0.5242,1.04838 9.68777,10.84594 11.05652,11.05651 4.45212,0.68494 9.009,0 13.51351,0 14.33251,0 28.66503,0 42.99754,0 2.88148,0 35.81723,-0.70959 36.85504,-1.2285 2.61833,-1.30916 0.50543,-19.15059 -1.2285,-20.88452"
   id="path70882" /><path
   style="fill:#241c1c"
   d="m 530.71255,875.92141 c 15.78577,1.45949 22.78706,-2.15984 39.31204,-4.91401 5.26659,-0.87776 10.6405,-0.91497 15.97052,-1.2285 4.43107,-0.26065 11.88047,-2.03758 12.28501,-1.2285 1.4742,2.9484 -1.4742,8.10811 0,11.05651 0.26819,0.53638 7.81022,0 11.05651,0 3.06447,0 16.96666,-1.30595 20.88452,0 4.87824,1.62608 9.48893,1.2285 14.74202,1.2285 1.88131,0 6.3304,-0.85271 7.37101,1.2285 1.16393,2.32787 0,16.84583 0,17.19902 0,2.86651 1.28194,6.03563 0,8.59951 -1.40862,2.81724 -16.1647,1.2285 -20.88453,1.2285 -25.02459,0 -49.89071,-1.2285 -74.93857,-1.2285 -0.2507,0 -10.13767,0.91885 -11.05651,0 -4.16206,-4.16206 2.12963,-17.52639 -6.14251,-25.79853"
   id="path70884" /><path
   style="fill:#28170b"
   d="m 462.1386,149.41323 c 0.69799,0.80769 5.88675,-2.99188 6.08077,-3.04038 2.01165,-0.50292 6.06823,0 8.25248,0 3.66628,0 4.99664,-0.18566 8.68681,0.86868 0.69605,0.19887 1.4534,-0.0898 2.17171,0 2.13547,0.26693 3.27645,1.10475 4.77775,2.60604"
   id="path71280" /><path
   style="fill:#28170b"
   d="m 506.00702,150.71625 c 2.5345,-2.10706 5.42507,-1.26612 8.25248,-1.73736 0.31933,-0.0532 0.55123,-0.37085 0.86868,-0.43434 2.77585,-0.55517 7.85275,0 10.85852,0 1.52027,0 4.65811,-0.56906 6.08077,0 1.23679,0.49472 1.07582,1.30302 2.60604,1.30302"
   id="path71282" /><path
   style="fill:#000080"
   d="m 474.30014,155.05966 c -2.50829,-0.17414 -5.84724,0.30122 -7.38379,2.60605 -0.3597,0.53954 0,3.25178 0,3.90906 0,0.57913 0,1.15825 0,1.73737 0,0.28956 -0.21792,0.678 0,0.86868 1.28965,1.12844 3.83127,2.49584 5.64643,3.04038 2.00423,0.60127 4.02243,0.43435 6.08077,0.43435 2.08474,0 7.3838,0.937 7.3838,-2.17171 0,-2.6498 -0.0828,-3.00605 -1.73737,-5.21209 -1.23595,-1.64794 -4.37286,-1.60976 -6.08077,-2.60604 -1.35271,-0.78908 -2.35375,-2.42307 -3.90907,-2.60605 -1.28608,-0.1513 -2.29138,1.21143 -3.47472,1.73737 -0.51354,0.22823 -2.13961,0 -2.60605,0"
   id="path71284" /><path
   style="fill:#000080"
   d="m 517.73422,158.10005 c -2.15944,-0.31781 -4.26312,0.69871 -6.08077,1.73736 -1.08506,0.62004 -7.41731,5.34821 -5.21209,7.38379 3.9219,3.62022 9.37522,3.90907 14.33325,3.90907 0.57912,0 1.18796,0.18314 1.73736,0 0.92138,-0.30712 2.29892,-0.38164 2.60605,-1.30302 0.57319,-1.71958 1.17395,-5.55219 0.86868,-7.38379 -0.1859,-1.11539 -1.6859,-1.51446 -2.60605,-2.17171 -2.14897,-1.53498 -6.60861,-0.73879 -8.68681,-0.86868 -0.59578,-0.0372 -1.14503,-0.3603 -1.73737,-0.43434 -1.51934,-0.18992 -3.2333,0 -4.77774,0"
   id="path71286" /><path
   style="fill:#28170b"
   d="m 485.15866,181.12011 c 1.6136,-0.20312 4.40262,-0.99373 6.08077,-0.43434 1.01025,0.33675 2.79621,2.66007 2.17171,3.90907 -0.30641,0.61281 -2.84781,0.7478 -3.47473,0.43434 -0.5494,-0.2747 -0.75362,-1.02832 -1.30302,-1.30303 -3.03232,-1.51615 0.71583,1.58452 -3.47473,-2.60604 z"
   id="path71292" /><path
   style="fill:#28170b"
   d="m 501.66361,185.89786 c 0,-0.7239 -0.0898,-1.45339 0,-2.17171 0.37891,-3.03124 0.92568,-3.47472 3.90907,-3.47472 0.33516,0 1.54698,-0.12692 1.73736,0 0.63323,0.42215 1.59191,3.52321 0.43434,3.90907 -1.63542,0.54514 -4.28034,0 -6.08077,0"
   id="path71296" /><path
   style="fill:#28170b"
   d="m 480.81526,200.2311 c 8.68681,0 17.37363,0 26.06044,0 2.15848,0 5.24367,-0.53503 7.3838,0 0.70228,0.17558 -1.02752,1.16106 -1.73737,1.30303 -1.2065,0.2413 -3.05647,-0.16087 -4.3434,0 -2.08492,0.26061 -3.93999,0.43434 -6.08078,0.43434 -4.19862,0 -8.39725,0 -12.59588,0 -1.62366,0 -4.25793,0.61711 -5.64643,0 -1.06665,-0.47407 -1.87313,-1.73737 -3.04038,-1.73737 -1.42592,0 -2.48315,1.73737 -3.90907,1.73737"
   id="path71300" /></g>
<g
   id="skeleton_1_"
   sodipodi:insensitive="true"
   style="opacity:0.25">
	<circle
   id="rightShoulder"
   cx="392.79999"
   cy="294.29999"
   r="8.1999998" />
	<circle
   id="rightElbow"
   cx="289.29999"
   cy="294.39999"
   r="8.1999998" />
	
		<circle
   id="rightWrist"
   transform="matrix(0.9951,-0.09853767,0.09853767,0.9951,-29.0274,13.8698)"
   cx="125.9"
   cy="300.79999"
   r="8.1999998" />
	<circle
   id="rightHip"
   cx="443.10001"
   cy="510.10001"
   r="8.1999998" />
	<circle
   id="rightKnee"
   cx="449.5"
   cy="670.29999"
   r="8.1999998" />
	<circle
   id="rightAnkle"
   cx="449.5"
   cy="878.29999"
   r="8.1999998" />
	<circle
   id="leftShoulder"
   cx="605.70001"
   cy="294.29999"
   r="8.1999998" />
	<circle
   id="leftElbow"
   cx="710.09998"
   cy="294"
   r="8.1999998" />
	<circle
   id="leftWrist"
   cx="873.5"
   cy="300.29999"
   r="8.1999998" />
	<circle
   id="leftHip"
   cx="559.5"
   cy="509.29999"
   r="8.1999998" />
	<circle
   id="leftKnee"
   cx="559.5"
   cy="670.29999"
   r="8.1999998" />
	<circle
   id="leftAnkle"
   cx="559.5"
   cy="878.29999"
   r="8.1999998" />
	<polygon
   style="fill:none;stroke:#000000;stroke-miterlimit:10"
   points="443,510.4 559.4,509.6 605.6,294.6 392.7,294.6 "
   id="polygon886" />
	<polyline
   style="fill:none;stroke:#000000;stroke-miterlimit:10"
   points="391.7,294.6 289,294.6 125.7,300.9  "
   id="polyline888" />
	<polyline
   style="fill:none;stroke:#000000;stroke-miterlimit:10"
   points="607.1,294.2 710.3,294.2 873.6,300.6  "
   id="polyline890" />
	<polyline
   style="fill:none;stroke:#000000;stroke-miterlimit:10"
   points="443,510.4 449.4,670.6 449.4,878.6  "
   id="polyline892" />
	<polyline
   style="fill:none;stroke:#000000;stroke-miterlimit:10"
   points="559.4,509.6 559.4,670.6 559.4,878.6  "
   id="polyline894" />
	<circle
   id="rightEye0"
   cx="468.60001"
   cy="160.2"
   r="0.80000001" />
	<circle
   id="rightBrow1"
   cx="466.39999"
   cy="148.3"
   r="0.80000001" />
	<circle
   id="rightBrow4"
   cx="489.70001"
   cy="151.3"
   r="0.80000001" />
	<circle
   id="nose1"
   cx="497.60001"
   cy="161.2"
   r="0.80000001" />
	<circle
   id="rightBrow3"
   cx="479.89999"
   cy="147.3"
   r="0.80000001" />
	<circle
   id="rightEye1"
   cx="473.79999"
   cy="156.5"
   r="0.80000001" />
	<circle
   id="rightBrow0"
   cx="462.39999"
   cy="152"
   r="0.80000001" />
	<circle
   id="rightBrow2"
   cx="472.60001"
   cy="147.3"
   r="0.80000001" />
	<circle
   id="rightEye5"
   cx="473.79999"
   cy="162.5"
   r="0.80000001" />
	<circle
   id="rightEye2"
   cx="480.10001"
   cy="156.5"
   r="0.80000001" />
	<circle
   id="rightEye3"
   cx="485.29999"
   cy="160.7"
   r="0.80000001" />
	<circle
   id="nose0"
   cx="497.60001"
   cy="155.39999"
   r="0.80000001" />
	<circle
   id="nose3"
   cx="497.60001"
   cy="173.8"
   r="0.80000001" />
	<circle
   id="rightNose0"
   cx="486.89999"
   cy="178.3"
   r="0.80000001" />
	<circle
   id="rightMouthCorner"
   cx="480.89999"
   cy="200.39999"
   r="0.80000001" />
	<circle
   id="rightNose1"
   cx="492.10001"
   cy="178.3"
   r="0.80000001" />
	<circle
   id="rightUpperLipTop0"
   cx="487.79999"
   cy="197"
   r="0.80000001" />
	<circle
   id="nose2"
   cx="497.60001"
   cy="166.7"
   r="0.80000001" />
	<circle
   id="nose4"
   cx="497.60001"
   cy="179.10001"
   r="0.80000001" />
	<circle
   id="upperLipTopMid"
   cx="498.39999"
   cy="196.8"
   r="0.80000001" />
	<circle
   id="rightUpperLipTop1"
   cx="494.29999"
   cy="195.89999"
   r="0.80000001" />
	<path
   id="rightMiddleLip"
   d="m 484.5,199.9 c 0.4,0 0.8,0.4 0.8,0.8 0,0.4 -0.4,0.8 -0.8,0.8 -0.4,0 -0.8,-0.4 -0.8,-0.8 0,-0.4 0.4,-0.8 0.8,-0.8 z" />
	<circle
   id="lowerLipBottomMid"
   cx="498.39999"
   cy="210"
   r="0.80000001" />
	<circle
   id="upperLipBottomMid"
   cx="498.39999"
   cy="200.39999"
   r="0.80000001" />
	<circle
   id="lowerLipTopMid"
   cx="498.39999"
   cy="203.5"
   r="0.80000001" />
	<circle
   id="rightUpperLipBottom1"
   cx="494.5"
   cy="199.89999"
   r="0.80000001" />
	<circle
   id="rightLowerLipTop0"
   cx="494.5"
   cy="202.8"
   r="0.80000001" />
	<circle
   id="rightLowerLipBottom1"
   cx="494.29999"
   cy="209.5"
   r="0.80000001" />
	<circle
   id="rightLowerLipBottom0"
   cx="487.29999"
   cy="206.7"
   r="0.80000001" />
	<circle
   id="rightEye4"
   cx="480.10001"
   cy="161.7"
   r="0.80000001" />
	<circle
   id="jawMid"
   cx="498.39999"
   cy="235.8"
   r="0.80000001" />
	<circle
   id="rightJaw7"
   cx="483.39999"
   cy="232.60001"
   r="0.80000001" />
	<circle
   id="rightJaw6"
   cx="473.39999"
   cy="225.89999"
   r="0.80000001" />
	<circle
   id="rightJaw5"
   cx="461.79999"
   cy="213.39999"
   r="0.80000001" />
	<circle
   id="rightJaw4"
   cx="455"
   cy="193.39999"
   r="0.80000001" />
	<circle
   id="rightJaw3"
   cx="454.20001"
   cy="171.7"
   r="0.80000001" />
	<circle
   id="rightJaw2"
   cx="454.20001"
   cy="162.2"
   r="0.80000001" />
	<circle
   id="rightJaw1"
   cx="455"
   cy="150.5"
   r="0.80000001" />
	<circle
   id="rightJaw0"
   cx="457.5"
   cy="141.2"
   r="0.80000001" />
	<circle
   id="topMid"
   cx="498.60001"
   cy="115.1"
   r="0.80000001" />
	<circle
   id="leftTop0"
   cx="518.29999"
   cy="117.6"
   r="0.80000001" />
	<circle
   id="leftTop1"
   cx="530.90002"
   cy="127.1"
   r="0.80000001" />
	<circle
   id="leftEye0"
   cx="528.20001"
   cy="160.2"
   r="0.80000001" />
	<circle
   id="leftBrow1"
   cx="530.09998"
   cy="148.7"
   r="0.80000001" />
	<circle
   id="leftBrow4"
   cx="506.5"
   cy="150.8"
   r="0.80000001" />
	<circle
   id="leftBrow3"
   cx="516.5"
   cy="147.60001"
   r="0.80000001" />
	<circle
   id="leftEye1"
   cx="523"
   cy="156.5"
   r="0.80000001" />
	<circle
   id="leftBrow0"
   cx="534.09998"
   cy="151.60001"
   r="0.80000001" />
	<circle
   id="leftBrow2"
   cx="523.79999"
   cy="147.2"
   r="0.80000001" />
	<circle
   id="leftEye5"
   cx="523"
   cy="162.5"
   r="0.80000001" />
	<circle
   id="leftEye2"
   cx="516.70001"
   cy="156.5"
   r="0.80000001" />
	<circle
   id="leftEye3"
   cx="511.5"
   cy="160.7"
   r="0.80000001" />
	<circle
   id="leftNose0"
   cx="508"
   cy="178.3"
   r="0.80000001" />
	<circle
   id="leftMouthCorner"
   cx="515.90002"
   cy="200.39999"
   r="0.80000001" />
	<circle
   id="leftNose1"
   cx="503.20001"
   cy="178.3"
   r="0.80000001" />
	<circle
   id="leftUpperLipTop0"
   cx="509"
   cy="197"
   r="0.80000001" />
	<circle
   id="leftUpperLipTop1"
   cx="502.60001"
   cy="195.89999"
   r="0.80000001" />
	<path
   id="leftMiddleLip"
   d="m 512.3,199.9 c 0.4,0 0.8,0.4 0.8,0.8 0,0.4 -0.4,0.8 -0.8,0.8 -0.4,0 -0.8,-0.4 -0.8,-0.8 0,-0.4 0.4,-0.8 0.8,-0.8 z" />
	<circle
   id="leftUpperLipBottom1"
   cx="502.39999"
   cy="199.89999"
   r="0.80000001" />
	<circle
   id="leftLowerLipTop0"
   cx="502.39999"
   cy="202.8"
   r="0.80000001" />
	<circle
   id="leftLowerLipBottom1"
   cx="502.60001"
   cy="209.5"
   r="0.80000001" />
	<circle
   id="leftLowerLipBottom0"
   cx="509.5"
   cy="206.7"
   r="0.80000001" />
	<circle
   id="leftEye4"
   cx="516.70001"
   cy="161.7"
   r="0.80000001" />
	<circle
   id="leftJaw7"
   cx="513.20001"
   cy="233"
   r="0.80000001" />
	<circle
   id="leftJaw6"
   cx="523.20001"
   cy="226.3"
   r="0.80000001" />
	<circle
   id="leftJaw5"
   cx="534.79999"
   cy="213.7"
   r="0.80000001" />
	<circle
   id="leftJaw4"
   cx="541.59998"
   cy="193.7"
   r="0.80000001" />
	<circle
   id="leftJaw3"
   cx="542.40002"
   cy="172.10001"
   r="0.80000001" />
	<circle
   id="leftJaw2"
   cx="542.40002"
   cy="162.5"
   r="0.80000001" />
	<circle
   id="leftJaw1"
   cx="541.59998"
   cy="150.8"
   r="0.80000001" />
	<circle
   id="leftJaw0"
   cx="539.09998"
   cy="141.60001"
   r="0.80000001" />
	<polyline
   style="fill:none;stroke:#000000;stroke-miterlimit:10"
   points="498.4,115.1 478.6,117.6 466.1,127.1 457.5,141.2    455,150.5 454.2,162.2 454.2,171.7 455,193.4 461.8,213.4 473.4,225.9 483.4,232.6 498.4,235.8 513.2,233 523.2,226.3 534.8,213.7    541.6,193.7 542.4,172.1 542.4,162.5 541.6,150.8 539.1,141.6 530.9,127.1 518.3,117.6 498.4,115.1  "
   id="polyline967" />
	<polyline
   style="fill:none;stroke:#000000;stroke-miterlimit:10"
   points="462.4,152 466.4,148.3 472.6,147.3 479.9,147.3    489.7,151.3  "
   id="polyline969" />
	<polygon
   style="fill:none;stroke:#000000;stroke-miterlimit:10"
   points="473.8,156.5 480.1,156.5 485.3,160.7 480.1,161.7 473.8,162.5 468.6,160.2 "
   id="polygon971" />
	<polyline
   style="fill:none;stroke:#000000;stroke-miterlimit:10"
   points="486.9,178.3 492.1,178.3 497.6,179.1 497.6,173.8    497.6,166.7 497.6,161.2 497.6,155.4  "
   id="polyline973" />
	<polyline
   style="fill:none;stroke:#000000;stroke-miterlimit:10"
   points="533.9,151.6 529.9,148.7 523.6,147.2 516.3,147.6    506.3,150.8  "
   id="polyline975" />
	<polygon
   style="fill:none;stroke:#000000;stroke-miterlimit:10"
   points="522.7,156.5 516.4,156.5 511.3,160.7 516.4,161.7 522.7,162.5 528,160.2 "
   id="polygon977" />
	<polyline
   style="fill:none;stroke:#000000;stroke-miterlimit:10"
   points="508,178.3 503,178.3 497.6,179.1  "
   id="polyline979" />
	<polygon
   style="fill:none;stroke:#000000;stroke-miterlimit:10"
   points="487.8,197 494.3,195.9 498.4,196.8 502.6,195.9 509,197 515.9,200.4 509.5,206.7 502.4,209.5 498.4,210 494.3,209.5 487.3,206.7 480.9,200.4 "
   id="polygon981" />
	<polyline
   style="fill:none;stroke:#000000;stroke-miterlimit:10"
   points="480.9,200.4 484.5,200.7 494.5,199.9 498.4,200.4    502.4,199.9 512.3,200.7 515.9,200.4  "
   id="polyline983" />
	<polyline
   style="fill:none;stroke:#000000;stroke-miterlimit:10"
   points="480.9,200.4 484.5,200.7 494.5,202.8 498.4,203.6    502.4,202.8 512.3,200.7 515.9,200.4  "
   id="polyline985" />
	<circle
   id="rightTop0"
   cx="478.70001"
   cy="117.6"
   r="0.80000001" />
	<circle
   id="rightTop1"
   cx="466.10001"
   cy="127.1"
   r="0.80000001" />
</g>
</svg>
