<?xml version="1.0" standalone="no"?>
<!DOCTYPE svg PUBLIC "-//W3C//DTD SVG 20010904//EN"
 "http://www.w3.org/TR/2001/REC-SVG-20010904/DTD/svg10.dtd">
<svg version="1.0" xmlns="http://www.w3.org/2000/svg"
 width="225.000000pt" height="225.000000pt" viewBox="0 0 225.000000 225.000000"
 preserveAspectRatio="xMidYMid meet">

<g transform="translate(0.000000,225.000000) scale(0.100000,-0.100000)"
fill="#000000" stroke="none">
<path d="M1404 1941 c-23 -10 -54 -36 -70 -57 -26 -34 -29 -45 -29 -118 0 -45
-4 -87 -8 -94 -9 -13 18 -30 30 -19 3 4 21 -6 40 -21 72 -54 206 -38 261 33
119 151 -48 356 -224 276z m91 -105 c46 -20 44 -39 -6 -62 l-42 -18 27 -9 c30
-10 35 -37 7 -37 -31 0 -93 30 -88 43 2 7 21 22 42 33 34 20 36 22 16 29 -24
7 -29 35 -6 35 9 0 31 -7 50 -14z"/>
<path d="M1105 1700 c-11 -4 -49 -38 -85 -74 -43 -44 -72 -66 -88 -66 -45 0
-154 -32 -143 -43 13 -13 -6 -53 -32 -64 -19 -9 -17 -12 24 -60 24 -28 48 -52
53 -52 15 -2 0 108 -17 127 -22 24 -21 32 1 32 11 0 40 -23 65 -51 25 -28 52
-49 59 -47 21 7 21 36 -1 78 l-21 40 21 0 c13 0 53 31 100 77 49 47 83 73 88
67 6 -5 15 -49 22 -99 10 -81 14 -93 43 -117 33 -29 34 -24 -6 -88 -18 -28 -5
-34 31 -15 31 15 51 13 51 -5 0 -6 -18 -21 -40 -35 -48 -30 -44 -45 11 -45 38
0 39 -1 39 -33 0 -76 -94 -203 -194 -262 -97 -57 -232 -79 -332 -54 l-45 12 6
38 c8 45 4 46 -42 18 -31 -19 -36 -20 -50 -7 -13 14 -11 18 17 38 17 12 29 25
25 28 -3 3 -27 5 -53 3 -44 -2 -49 0 -62 26 -7 15 -14 58 -15 95 -1 66 -2 69
-55 133 -30 38 -49 70 -44 75 7 7 169 16 210 11 7 0 31 -19 54 -42 29 -28 45
-38 52 -31 16 16 -9 68 -44 93 -22 16 -26 24 -18 35 12 13 6 34 -10 34 -5 0
-22 -11 -38 -25 -25 -21 -44 -26 -122 -32 -145 -10 -158 -36 -70 -136 40 -45
43 -53 46 -113 4 -77 29 -138 82 -196 33 -36 39 -50 39 -86 0 -31 6 -50 21
-65 23 -22 96 -38 177 -38 28 0 82 0 120 -1 157 -1 187 -1 340 6 252 11 283
11 291 4 12 -13 16 -60 23 -323 6 -242 8 -263 29 -306 40 -81 103 -93 136 -24
14 29 21 68 24 145 5 114 -11 353 -29 444 -16 78 -63 153 -126 200 -47 35 -53
43 -53 76 0 128 -95 249 -217 275 -21 4 -34 14 -38 28 -22 83 -34 106 -76 148
-43 44 -46 50 -57 130 -11 76 -32 130 -50 128 -4 0 -16 -4 -27 -9z m288 -527
c-7 -50 -2 -51 44 -10 20 17 23 18 28 4 4 -8 -1 -29 -9 -46 -22 -42 -21 -44
24 -36 44 8 51 -2 20 -30 -25 -23 -21 -38 11 -45 19 -5 24 -12 24 -39 0 -20 6
-36 18 -42 16 -9 16 -12 -5 -49 -25 -43 -30 -44 -210 -56 -74 -5 -89 -3 -94 9
-5 14 -9 14 -40 0 -31 -15 -35 -15 -54 2 -19 17 -21 17 -38 2 -24 -22 -38 -21
-55 3 l-14 20 -18 -20 c-26 -29 -47 -26 -43 7 4 36 47 65 107 71 52 5 59 10
41 28 -8 8 -6 15 6 25 14 11 22 10 55 -9 21 -12 40 -22 43 -22 14 0 4 23 -21
46 -25 23 -25 25 -8 44 18 19 18 19 57 -11 21 -17 41 -29 43 -27 3 2 -7 28
-22 57 l-26 53 21 42 c12 23 21 33 21 24 2 -38 43 -4 55 45 6 24 9 26 26 17
17 -9 19 -17 13 -57z m-703 -290 c0 -10 5 -11 18 -5 9 5 63 7 120 4 98 -4 102
-5 102 -28 0 -29 -21 -43 -34 -22 -8 14 -12 13 -28 -6 -17 -19 -20 -20 -30 -4
-11 16 -14 16 -41 0 -26 -16 -29 -16 -40 -1 -9 11 -22 15 -45 11 -18 -2 -39 1
-47 8 -15 13 -21 61 -8 73 9 9 33 -12 33 -30z m985 -83 c-10 -16 -65 -41 -75
-35 -16 10 -12 24 17 60 l27 33 18 -24 c11 -13 16 -28 13 -34z m43 -127 c3
-27 -1 -33 -21 -38 -49 -13 -72 -3 -75 32 -3 28 0 32 25 36 56 9 68 4 71 -30z
m-22 -140 c30 5 35 3 40 -19 8 -32 -10 -52 -54 -60 -42 -8 -62 12 -62 63 0 31
2 33 21 22 12 -6 37 -9 55 -6z m36 -295 c-12 -12 -81 -13 -92 -1 -4 4 -11 32
-15 61 l-7 53 40 -7 c22 -3 48 -2 58 4 17 10 19 6 22 -45 2 -31 -1 -60 -6 -65z"/>
<path d="M1066 1555 l-29 -24 34 -8 c31 -9 34 -8 37 15 5 37 -10 43 -42 17z"/>
<path d="M711 1491 c-11 -7 -9 -10 8 -16 22 -7 41 0 41 16 0 11 -30 12 -49 0z"/>
<path d="M1089 1358 c-21 -26 -32 -32 -63 -31 -46 1 -44 -21 3 -25 36 -4 74
17 92 49 19 36 -5 40 -32 7z"/>
<path d="M520 1315 c18 -19 26 -22 32 -13 16 26 8 38 -24 38 l-31 0 23 -25z"/>
<path d="M883 1239 c-28 -10 -30 -25 -5 -32 29 -7 34 -44 9 -67 -18 -18 -19
-20 -3 -20 9 0 22 12 29 28 9 20 19 27 41 27 16 0 31 6 34 13 3 11 1 11 -17 0
-27 -16 -54 -1 -61 34 -4 22 -8 24 -27 17z"/>
<path d="M722 1170 c-18 -24 -30 -30 -58 -30 -24 0 -34 -4 -32 -12 16 -46 128
1 128 52 0 28 -13 25 -38 -10z"/>
</g>
</svg>
